<svg width="17" height="16" viewBox="0 0 17 16" fill="none" xmlns="http://www.w3.org/2000/svg">
<g clip-path="url(#clip0_10_473)">
<path d="M15.5 2H13.5V0H11.5V2H9.5V0H7.5V2H5.5V0H3.5V2H1.5C0.947 2 0.5 2.447 0.5 3V15C0.5 15.553 0.947 16 1.5 16H15.5C16.053 16 16.5 15.553 16.5 15V3C16.5 2.447 16.053 2 15.5 2ZM14.5 14H2.5V5H14.5V14Z" fill="#6A7183"/>
<path d="M6.5 7H4.5V9H6.5V7Z" fill="#6A7183"/>
<path d="M9.5 7H7.5V9H9.5V7Z" fill="#6A7183"/>
<path d="M6.5 10H4.5V12H6.5V10Z" fill="#6A7183"/>
<path d="M9.5 10H7.5V12H9.5V10Z" fill="#6A7183"/>
<path d="M12.5 7H10.5V9H12.5V7Z" fill="#6A7183"/>
<path d="M12.5 10H10.5V12H12.5V10Z" fill="#6A7183"/>
</g>
<defs>
<clipPath id="clip0_10_473">
<rect width="16" height="16" fill="white" transform="translate(0.5)"/>
</clipPath>
</defs>
</svg>
