<svg width="16" height="16" viewBox="0 0 16 16" fill="none" xmlns="http://www.w3.org/2000/svg">
<g clip-path="url(#clip0_10_727)">
<path d="M14.2314 2.79169H12.4232V0.982544H10.615V2.79169H8.80683V0.982544H6.99864V2.79169H5.19045V0.982544H3.38227V2.79169H1.57408C1.07411 2.79169 0.669983 3.19603 0.669983 3.69626V14.5511C0.669983 15.0514 1.07411 15.4557 1.57408 15.4557H14.2314C14.7314 15.4557 15.1355 15.0514 15.1355 14.5511V3.69626C15.1355 3.19603 14.7314 2.79169 14.2314 2.79169ZM13.3273 13.6466H2.47817V5.50541H13.3273V13.6466Z" fill="#6A7183"/>
<path d="M6.09475 7.31445H4.28656V9.12453H6.09475V7.31445Z" fill="#6A7183"/>
<path d="M8.80691 7.31445H6.99872V9.12453H8.80691V7.31445Z" fill="#6A7183"/>
<path d="M6.09475 10.0283H4.28656V11.8384H6.09475V10.0283Z" fill="#6A7183"/>
<path d="M8.80691 10.0283H6.99872V11.8384H8.80691V10.0283Z" fill="#6A7183"/>
<path d="M11.5192 7.31445H9.71106V9.12453H11.5192V7.31445Z" fill="#6A7183"/>
<path d="M11.5192 10.0283H9.71106V11.8384H11.5192V10.0283Z" fill="#6A7183"/>
</g>
<defs>
<clipPath id="clip0_10_727">
<rect width="14.4655" height="14.4732" fill="white" transform="translate(0.669922 0.982666)"/>
</clipPath>
</defs>
</svg>
