<svg width="24" height="24" viewBox="0 0 24 24" fill="none" xmlns="http://www.w3.org/2000/svg">
<path d="M12 0C5.38319 0 0 5.38321 0 12C0 18.6168 5.38319 24 12 24C18.6168 24 24 18.6168 24 12C24 5.3832 18.6168 0 12 0Z" fill="#C19F85"/>
<path d="M8.84176 8.84221C9.88819 8.84221 10.7365 7.99391 10.7365 6.94747C10.7365 5.90104 9.88819 5.05273 8.84176 5.05273C7.79532 5.05273 6.94702 5.90104 6.94702 6.94747C6.94702 7.99391 7.79532 8.84221 8.84176 8.84221Z" fill="#87613E"/>
<path d="M15.7893 10.1054C16.4869 10.1054 17.0524 9.53988 17.0524 8.84226C17.0524 8.14464 16.4869 7.5791 15.7893 7.5791C15.0917 7.5791 14.5261 8.14464 14.5261 8.84226C14.5261 9.53988 15.0917 10.1054 15.7893 10.1054Z" fill="#DDC2B6"/>
<path d="M10.737 18.3159C11.4347 18.3159 12.0002 17.7503 12.0002 17.0527C12.0002 16.3551 11.4347 15.7896 10.737 15.7896C10.0394 15.7896 9.47388 16.3551 9.47388 17.0527C9.47388 17.7503 10.0394 18.3159 10.737 18.3159Z" fill="#DDC2B6"/>
<path d="M5.68406 13.8945C6.38168 13.8945 6.94721 13.3289 6.94721 12.6313C6.94721 11.9337 6.38168 11.3682 5.68406 11.3682C4.98643 11.3682 4.4209 11.9337 4.4209 12.6313C4.4209 13.3289 4.98643 13.8945 5.68406 13.8945Z" fill="#87613E"/>
<path d="M17.0529 17.0527C18.0994 17.0527 18.9477 16.2044 18.9477 15.1579C18.9477 14.1115 18.0994 13.2632 17.0529 13.2632C16.0065 13.2632 15.1582 14.1115 15.1582 15.1579C15.1582 16.2044 16.0065 17.0527 17.0529 17.0527Z" fill="#87613E"/>
</svg>
