<svg width="12" height="13" viewBox="0 0 12 13" fill="none" xmlns="http://www.w3.org/2000/svg">
<g clip-path="url(#clip0_10_298)">
<path d="M11 5.00696H7V1.00696C7 0.741742 6.89464 0.487388 6.70711 0.299851C6.51957 0.112315 6.26522 0.00695801 6 0.00695801C5.73478 0.00695801 5.48043 0.112315 5.29289 0.299851C5.10536 0.487388 5 0.741742 5 1.00696V5.00696H1C0.734784 5.00696 0.48043 5.11232 0.292893 5.29985C0.105357 5.48739 0 5.74174 0 6.00696C0 6.27217 0.105357 6.52653 0.292893 6.71406C0.48043 6.9016 0.734784 7.00696 1 7.00696H5V11.007C5 11.2722 5.10536 11.5265 5.29289 11.7141C5.48043 11.9016 5.73478 12.007 6 12.007C6.26522 12.007 6.51957 11.9016 6.70711 11.7141C6.89464 11.5265 7 11.2722 7 11.007V7.00696H11C11.2652 7.00696 11.5196 6.9016 11.7071 6.71406C11.8946 6.52653 12 6.27217 12 6.00696C12 5.74174 11.8946 5.48739 11.7071 5.29985C11.5196 5.11232 11.2652 5.00696 11 5.00696Z" fill="white"/>
</g>
<defs>
<clipPath id="clip0_10_298">
<rect width="12" height="12" fill="white" transform="translate(0 0.00695801)"/>
</clipPath>
</defs>
</svg>
