<svg width="1144" height="64" viewBox="0 0 1144 64" fill="none" xmlns="http://www.w3.org/2000/svg">
<path d="M63.048 13.1654C60.8213 14.152 58.4293 14.8187 55.9147 15.12C58.5093 13.5675 60.4505 11.124 61.376 8.24538C58.9383 9.69335 56.2703 10.7126 53.488 11.2587C51.617 9.26102 49.1388 7.93691 46.4382 7.49197C43.7376 7.04703 40.9656 7.50615 38.5526 8.79805C36.1397 10.0899 34.2207 12.1423 33.0937 14.6366C31.9668 17.1308 31.6948 19.9274 32.32 22.592C27.3805 22.344 22.5483 21.0602 18.1371 18.8238C13.7259 16.5874 9.83424 13.4485 6.71466 9.61071C5.648 11.4507 5.03467 13.584 5.03467 15.856C5.03347 17.9014 5.53715 19.9154 6.50101 21.7193C7.46486 23.5233 8.8591 25.0615 10.56 26.1974C8.5874 26.1346 6.65833 25.6016 4.93333 24.6427V24.8027C4.93313 27.6714 5.92542 30.4517 7.74182 32.672C9.55822 34.8923 12.0869 36.4159 14.8987 36.984C13.0688 37.4793 11.1502 37.5522 9.288 37.1974C10.0813 39.6657 11.6267 41.8241 13.7076 43.3705C15.7886 44.9169 18.3011 45.7739 20.8933 45.8214C16.4929 49.2758 11.0584 51.1496 5.464 51.1414C4.47301 51.1416 3.48287 51.0838 2.49866 50.968C8.17727 54.6192 14.7876 56.5569 21.5387 56.5494C44.392 56.5494 56.8853 37.6214 56.8853 21.2054C56.8853 20.672 56.872 20.1334 56.848 19.6C59.2781 17.8426 61.3758 15.6664 63.0427 13.1734L63.048 13.1654Z" fill="#7E8597"/>
<path d="M205.587 8C202.938 8 200.794 10.15 200.794 12.8C200.794 14.0688 201.3 15.2938 202.194 16.1938C203.094 17.0938 204.312 17.6 205.587 17.6H210.381V12.8C210.381 10.1563 208.237 8.00625 205.587 8ZM205.587 20.8H192.794C190.144 20.8 188 22.95 188 25.6C188 28.25 190.15 30.4 192.794 30.4H205.581C208.231 30.4 210.375 28.25 210.375 25.6C210.381 22.95 208.231 20.8 205.587 20.8ZM218.375 30.4C221.025 30.4 223.175 28.25 223.169 25.6V12.8C223.169 10.15 221.025 8 218.375 8C215.725 8 213.581 10.15 213.581 12.8V25.6C213.581 28.2563 215.725 30.4 218.375 30.4ZM235.963 25.6C235.963 22.95 233.812 20.8 231.169 20.8C228.525 20.8 226.375 22.95 226.375 25.6V30.4H231.169C233.812 30.4 235.963 28.25 235.963 25.6ZM231.162 33.6H218.375C215.725 33.6 213.581 35.75 213.581 38.4C213.581 39.6688 214.088 40.8937 214.981 41.7938C215.881 42.6938 217.1 43.2 218.375 43.2H231.162C233.812 43.2 235.956 41.05 235.956 38.4C235.962 35.75 233.812 33.6062 231.162 33.6ZM218.375 46.4H213.581V51.2C213.581 53.85 215.731 56 218.375 56C221.025 56 223.175 53.85 223.169 51.2C223.175 48.55 221.025 46.4062 218.375 46.4ZM205.587 33.6C202.938 33.6 200.794 35.75 200.794 38.4V51.2C200.794 53.85 202.944 56 205.587 56C208.237 56 210.388 53.85 210.381 51.2V38.4C210.381 37.1313 209.875 35.9062 208.981 35.0062C208.081 34.1062 206.856 33.6 205.587 33.6ZM188 38.4C188 39.6688 188.506 40.8937 189.4 41.7938C190.3 42.6938 191.519 43.2 192.794 43.2C195.444 43.2 197.594 41.05 197.587 38.4V33.6H192.794C190.15 33.6 188 35.75 188 38.4Z" fill="#7E8597"/>
<g clip-path="url(#clip0_16_29)">
<path d="M376 5.33337L392 15.3334L376 25.3334L360 15.3334L376 5.33337ZM408 5.33337L424 15.3334L408 25.3334L392 15.3334L408 5.33337ZM360 35.3334L376 25.3334L392 35.3334L376 45.3334L360 35.3334ZM408 25.3334L424 35.3334L408 45.3334L392 35.3334L408 25.3334ZM376 48.6667L392 38.6667L408 48.6667L392 58.6667L376 48.6667Z" fill="#7E8597"/>
</g>
<path fill-rule="evenodd" clip-rule="evenodd" d="M572 0C554.32 0 540 14.32 540 32C540 46.16 549.16 58.12 561.88 62.36C563.48 62.64 564.08 61.68 564.08 60.84C564.08 60.08 564.04 57.56 564.04 54.88C556 56.36 553.92 52.92 553.28 51.12C552.92 50.2 551.36 47.36 550 46.6C548.88 46 547.28 44.52 549.96 44.48C552.48 44.44 554.28 46.8 554.88 47.76C557.76 52.6 562.36 51.24 564.2 50.4C564.48 48.32 565.32 46.92 566.24 46.12C559.12 45.32 551.68 42.56 551.68 30.32C551.68 26.84 552.92 23.96 554.96 21.72C554.64 20.92 553.52 17.64 555.28 13.24C555.28 13.24 557.96 12.4 564.08 16.52C566.64 15.8 569.36 15.44 572.08 15.44C574.8 15.44 577.52 15.8 580.08 16.52C586.2 12.36 588.88 13.24 588.88 13.24C590.64 17.64 589.52 20.92 589.2 21.72C591.24 23.96 592.48 26.8 592.48 30.32C592.48 42.6 585 45.32 577.88 46.12C579.04 47.12 580.04 49.04 580.04 52.04C580.04 56.32 580 59.76 580 60.84C580 61.68 580.6 62.68 582.2 62.36C588.552 60.2153 594.072 56.1325 597.983 50.6863C601.894 45.2401 603.998 38.7048 604 32C604 14.32 589.68 0 572 0Z" fill="#7E8597"/>
<g clip-path="url(#clip1_16_29)">
<path d="M751.979 5.24268C750.821 5.24268 749.659 5.47202 748.565 5.92802L724.744 15.7787C723.403 16.3334 723.437 18.2 724.776 18.7547L748.728 28.2427C750.826 29.0933 753.174 29.0933 755.272 28.2427L779.224 18.7547C780.565 18.232 780.565 16.3334 779.256 15.7787L755.371 5.92802C754.297 5.47422 753.144 5.24114 751.979 5.24268ZM782.4 21.4827C782.197 21.484 781.996 21.5248 781.808 21.6027L755.109 31.9414C754.811 32.0637 754.555 32.2719 754.375 32.5396C754.194 32.8074 754.097 33.1225 754.096 33.4454V57.168C754.099 57.4277 754.164 57.6829 754.287 57.9116C754.411 58.1402 754.588 58.3354 754.803 58.4803C755.019 58.6252 755.266 58.7155 755.525 58.7433C755.783 58.7712 756.044 58.7357 756.285 58.64L782.987 48.2667C783.286 48.1555 783.544 47.9548 783.725 47.6919C783.907 47.429 784.002 47.1167 784 46.7974V23.0747C783.997 22.6522 783.827 22.248 783.528 21.9502C783.228 21.6524 782.823 21.4853 782.4 21.4854V21.4827ZM721.803 21.5867C721.566 21.5783 721.33 21.619 721.11 21.7061C720.889 21.7933 720.69 21.9252 720.523 22.0933C720.229 22.3894 720 22.7467 720 23.1733V45.4534C720 46.632 721.373 47.4187 722.421 46.8933L739.141 38.8774L739.96 38.4854L747.877 34.656C749.12 34.0694 749.024 32.2347 747.715 31.744L722.355 21.7013C722.18 21.6281 721.992 21.5883 721.803 21.584V21.5867Z" fill="#7E8597"/>
</g>
<path d="M910.876 60.226H920.088V51.026H910.876V60.226ZM903.174 43.326V51.026H910.874V43.326H903.174ZM961.45 22.112C958.574 12.838 951.15 5.44998 941.874 2.53798C920.612 -4.10002 900.998 11.712 900.998 31.988H912.974C912.974 19.264 925.598 9.42598 938.986 14.276C941.447 15.1702 943.683 16.5925 945.536 18.4431C947.389 20.2937 948.815 22.5277 949.712 24.988C954.6 38.364 944.75 50.964 932.038 50.988V51.026H932V63.002C952.326 63.002 968.1 43.402 961.45 22.114V22.112ZM932.038 50.988V39.076H920.088V51.026H932V50.988H932.038Z" fill="#7E8597"/>
<g clip-path="url(#clip2_16_29)">
<path d="M1091.9 11.218C1093.88 12.832 1094.63 12.718 1098.36 12.468L1133.6 10.354C1134.35 10.354 1133.73 9.60403 1133.48 9.47803L1127.62 5.24803C1126.51 4.37203 1125.01 3.38403 1122.14 3.62203L1088.03 6.12203C1086.78 6.23603 1086.53 6.86203 1087.03 7.36203L1091.9 11.218ZM1094.01 19.438V56.51C1094.01 58.5 1095 59.25 1097.24 59.124L1135.97 56.884C1138.21 56.758 1138.47 55.394 1138.47 53.77V16.948C1138.47 15.322 1137.84 14.458 1136.47 14.584L1096 16.948C1094.5 17.074 1094.01 17.812 1094.01 19.428L1094.01 19.438ZM1132.24 21.416C1132.49 22.542 1132.24 23.656 1131.11 23.792L1129.25 24.168V51.532C1127.62 52.408 1126.14 52.908 1124.9 52.908C1122.9 52.908 1122.4 52.282 1120.91 50.418L1108.7 31.252V49.794L1112.56 50.67C1112.56 50.67 1112.56 52.91 1109.45 52.91L1100.85 53.41C1100.6 52.91 1100.85 51.66 1101.73 51.42L1103.97 50.794V26.284L1100.86 26.034C1100.61 24.908 1101.23 23.294 1102.97 23.17L1112.19 22.544L1124.9 41.96V24.782L1121.66 24.406C1121.41 23.042 1122.4 22.042 1123.65 21.926L1132.24 21.416ZM1085.17 2.76003L1120.66 0.146034C1125.01 -0.229965 1126.14 0.0200346 1128.87 2.01003L1140.21 9.97803C1142.07 11.342 1142.7 11.718 1142.7 13.208V56.886C1142.7 59.626 1141.7 61.24 1138.22 61.49L1096.99 63.98C1094.38 64.106 1093.13 63.73 1091.76 61.99L1083.41 51.156C1081.92 49.166 1081.3 47.676 1081.3 45.938V7.11603C1081.3 4.87603 1082.3 3.01203 1085.16 2.76203L1085.17 2.76003Z" fill="#7E8597"/>
</g>
<defs>
<clipPath id="clip0_16_29">
<rect width="64" height="64" fill="white" transform="translate(360)"/>
</clipPath>
<clipPath id="clip1_16_29">
<rect width="64" height="64" fill="white" transform="translate(720)"/>
</clipPath>
<clipPath id="clip2_16_29">
<rect width="64" height="64" fill="white" transform="translate(1080)"/>
</clipPath>
</defs>
</svg>
