<svg width="34" height="35" viewBox="0 0 34 35" fill="none" xmlns="http://www.w3.org/2000/svg">
<path d="M6.44915 5.39272L24.0832 3.33599C26.0708 3.10418 27.87 4.52749 28.1018 6.51504L30.3264 25.5886C30.5582 27.5761 29.1349 29.3753 27.1473 29.6071L9.51324 31.6638C7.52568 31.8956 5.72652 30.4723 5.49471 28.4848L3.2701 9.41125C3.03828 7.4237 4.46159 5.62454 6.44915 5.39272Z" stroke="url(#paint0_linear_28_469)" stroke-width="4.34783"/>
<path d="M12.6631 27.7489L25.97 26.1899C26.3664 26.1434 26.6507 25.7851 26.6057 25.3885L24.7549 9.06853C24.6859 8.4603 23.9406 8.20631 23.5145 8.64587L15.9523 16.4487C15.8846 16.5185 15.8317 16.6012 15.7967 16.6918L11.9028 26.768C11.7062 27.2769 12.1212 27.8124 12.6631 27.7489Z" fill="url(#paint1_linear_28_469)"/>
<defs>
<linearGradient id="paint0_linear_28_469" x1="15.0143" y1="2.20508" x2="18.5821" y2="32.7947" gradientUnits="userSpaceOnUse">
<stop stop-color="#5EBB79"/>
<stop offset="1" stop-color="#00AB82"/>
</linearGradient>
<linearGradient id="paint1_linear_28_469" x1="25.7203" y1="16.9079" x2="10.4839" y2="18.5093" gradientUnits="userSpaceOnUse">
<stop stop-color="#5BBB7A"/>
<stop offset="1" stop-color="#06AC82"/>
</linearGradient>
</defs>
</svg>
