<svg width="34" height="35" viewBox="0 0 34 35" fill="none" xmlns="http://www.w3.org/2000/svg">
<path d="M6.44937 5.39272L24.0835 3.33599C26.071 3.10418 27.8702 4.52749 28.102 6.51504L30.3266 25.5886C30.5584 27.5761 29.1351 29.3753 27.1475 29.6071L9.51346 31.6638C7.5259 31.8956 5.72674 30.4723 5.49493 28.4848L3.27031 9.41125C3.0385 7.4237 4.46181 5.62454 6.44937 5.39272Z" stroke="url(#paint0_linear_28_428)" stroke-width="4.34783"/>
<path d="M12.6635 27.7489L25.9704 26.1899C26.3669 26.1434 26.6511 25.7851 26.6061 25.3885L24.7554 9.06853C24.6864 8.4603 23.941 8.20631 23.515 8.64587L15.9527 16.4487C15.8851 16.5185 15.8322 16.6012 15.7971 16.6918L11.9033 26.768C11.7066 27.2769 12.1216 27.8124 12.6635 27.7489Z" fill="url(#paint1_linear_28_428)"/>
<defs>
<linearGradient id="paint0_linear_28_428" x1="15.0146" y1="2.20508" x2="18.5823" y2="32.7947" gradientUnits="userSpaceOnUse">
<stop stop-color="#5EBB79"/>
<stop offset="1" stop-color="#00AB82"/>
</linearGradient>
<linearGradient id="paint1_linear_28_428" x1="25.7207" y1="16.9079" x2="10.4843" y2="18.5093" gradientUnits="userSpaceOnUse">
<stop stop-color="#5BBB7A"/>
<stop offset="1" stop-color="#06AC82"/>
</linearGradient>
</defs>
</svg>
