<svg width="189" height="185" viewBox="0 0 189 185" fill="none" xmlns="http://www.w3.org/2000/svg">
<path d="M188.301 92.6451C188.301 74.4777 182.817 56.7184 172.541 41.6128C162.266 26.5072 147.661 14.7338 130.573 7.7815C113.485 0.829163 94.6823 -0.98988 76.5421 2.55439C58.4019 6.09866 41.739 14.8471 28.6606 27.6933L47.5536 46.251C56.8953 37.0751 68.7973 30.8262 81.7547 28.2946C94.7119 25.763 108.143 27.0623 120.348 32.0282C132.554 36.9942 142.986 45.4037 150.326 56.1935C157.665 66.9832 161.583 79.6684 161.583 92.6451H188.301Z" fill="#FF7777" stroke="white"/>
<path d="M28.6606 27.6933C15.5822 40.5395 6.67574 56.9067 3.06742 74.7249C-0.54089 92.5432 1.31102 111.012 8.38899 127.797C15.4669 144.581 27.4531 158.927 42.8316 169.02C58.2101 179.113 76.2904 184.501 94.786 184.501V158.256C81.5748 158.256 68.6604 154.408 57.6757 147.199C46.691 139.989 38.1295 129.742 33.0738 117.753C28.0182 105.765 26.6954 92.5723 29.2727 79.845C31.8501 67.1176 38.2119 55.4268 47.5536 46.2509L28.6606 27.6933Z" fill="#2BEBC8" stroke="white"/>
<path d="M94.7859 184.501C119.588 184.501 143.374 174.823 160.911 157.597C178.449 140.371 188.301 117.007 188.301 92.6451H161.583C161.583 110.046 154.545 126.735 142.018 139.039C129.492 151.344 112.501 158.256 94.7859 158.256V184.501Z" fill="#694BDB" stroke="white"/>
</svg>
