<svg width="34" height="35" viewBox="0 0 34 35" fill="none" xmlns="http://www.w3.org/2000/svg">
<path d="M3.41631 9.41125C3.18449 7.4237 4.6078 5.62454 6.59536 5.39272L24.2295 3.33599C26.217 3.10418 28.0162 4.52749 28.248 6.51504L30.4726 25.5886C30.7044 27.5761 29.2811 29.3753 27.2935 29.6071L9.65945 31.6638C7.6719 31.8956 5.87274 30.4723 5.64092 28.4848L3.41631 9.41125Z" stroke="url(#paint0_linear_28_448)" stroke-width="4.34783"/>
<path d="M12.8095 27.7489L26.1164 26.1899C26.5129 26.1434 26.7971 25.7851 26.7521 25.3885L24.9014 9.06853C24.8324 8.4603 24.087 8.20631 23.661 8.64587L16.0987 16.4487C16.0311 16.5185 15.9782 16.6012 15.9431 16.6918L12.0493 26.768C11.8526 27.2769 12.2676 27.8124 12.8095 27.7489Z" fill="url(#paint1_linear_28_448)"/>
<defs>
<linearGradient id="paint0_linear_28_448" x1="15.1606" y1="2.20508" x2="18.7283" y2="32.7947" gradientUnits="userSpaceOnUse">
<stop stop-color="#5EBB79"/>
<stop offset="1" stop-color="#00AB82"/>
</linearGradient>
<linearGradient id="paint1_linear_28_448" x1="25.8667" y1="16.9079" x2="10.6303" y2="18.5093" gradientUnits="userSpaceOnUse">
<stop stop-color="#5BBB7A"/>
<stop offset="1" stop-color="#06AC82"/>
</linearGradient>
</defs>
</svg>
