<svg width="33" height="34" viewBox="0 0 33 34" fill="none" xmlns="http://www.w3.org/2000/svg">
<path d="M6.00991 4.88759L23.644 2.83087C25.6316 2.59905 27.4307 4.02236 27.6625 6.00992L29.8871 25.0834C30.119 27.071 28.6957 28.8701 26.7081 29.102L9.074 31.1587C7.08645 31.3905 5.28729 29.9672 5.05547 27.9796L2.83086 8.90613C2.59904 6.91857 4.02235 5.11941 6.00991 4.88759Z" stroke="url(#paint0_linear_28_189)" stroke-width="4.34783"/>
<path d="M12.2238 27.2438L25.5307 25.6848C25.9272 25.6383 26.2114 25.28 26.1664 24.8834L24.3157 8.56341C24.2467 7.95517 23.5013 7.70118 23.0753 8.14075L15.513 15.9436C15.4454 16.0134 15.3925 16.0961 15.3574 16.1867L11.4636 26.2629C11.2669 26.7718 11.6819 27.3073 12.2238 27.2438Z" fill="url(#paint1_linear_28_189)"/>
<defs>
<linearGradient id="paint0_linear_28_189" x1="14.5751" y1="1.69995" x2="18.1429" y2="32.2896" gradientUnits="userSpaceOnUse">
<stop stop-color="#5EBB79"/>
<stop offset="1" stop-color="#00AB82"/>
</linearGradient>
<linearGradient id="paint1_linear_28_189" x1="25.281" y1="16.4027" x2="10.0446" y2="18.0041" gradientUnits="userSpaceOnUse">
<stop stop-color="#5BBB7A"/>
<stop offset="1" stop-color="#06AC82"/>
</linearGradient>
</defs>
</svg>
