<svg width="25" height="25" viewBox="0 0 25 25" fill="none" xmlns="http://www.w3.org/2000/svg">
<path d="M15.7446 14.7521H14.9546L14.6746 14.4821C15.6885 13.3061 16.2457 11.8048 16.2446 10.2521C16.2446 8.9665 15.8634 7.70979 15.1492 6.64087C14.435 5.57195 13.4198 4.73883 12.2321 4.24686C11.0444 3.75489 9.73742 3.62617 8.47654 3.87697C7.21567 4.12778 6.05748 4.74684 5.14844 5.65588C4.2394 6.56493 3.62033 7.72311 3.36953 8.98399C3.11872 10.2449 3.24745 11.5518 3.73941 12.7395C4.23138 13.9272 5.06451 14.9424 6.13343 15.6566C7.20234 16.3709 8.45905 16.7521 9.74463 16.7521C11.3546 16.7521 12.8346 16.1621 13.9746 15.1821L14.2446 15.4621V16.2521L19.2446 21.2421L20.7346 19.7521L15.7446 14.7521ZM9.74463 14.7521C7.25463 14.7521 5.24463 12.7421 5.24463 10.2521C5.24463 7.76208 7.25463 5.75208 9.74463 5.75208C12.2346 5.75208 14.2446 7.76208 14.2446 10.2521C14.2446 12.7421 12.2346 14.7521 9.74463 14.7521Z" fill="white"/>
</svg>
