<svg width="33" height="33" viewBox="0 0 33 33" fill="none" xmlns="http://www.w3.org/2000/svg">
<path d="M28.915 24.4468V25.7801C28.915 27.2468 27.715 28.4468 26.2484 28.4468H7.58171C6.87446 28.4468 6.19618 28.1658 5.69609 27.6657C5.19599 27.1656 4.91504 26.4874 4.91504 25.7801V7.11344C4.91504 6.4062 5.19599 5.72792 5.69609 5.22783C6.19618 4.72773 6.87446 4.44678 7.58171 4.44678H26.2484C27.715 4.44678 28.915 5.64678 28.915 7.11344V8.44678H16.915C16.2078 8.44678 15.5295 8.72773 15.0294 9.22783C14.5293 9.72792 14.2484 10.4062 14.2484 11.1134V21.7801C14.2484 22.4874 14.5293 23.1656 15.0294 23.6657C15.5295 24.1658 16.2078 24.4468 16.915 24.4468H28.915ZM16.915 21.7801H30.2484V11.1134H16.915V21.7801ZM22.2484 18.4468C21.1417 18.4468 20.2484 17.5534 20.2484 16.4468C20.2484 15.3401 21.1417 14.4468 22.2484 14.4468C23.355 14.4468 24.2484 15.3401 24.2484 16.4468C24.2484 17.5534 23.355 18.4468 22.2484 18.4468Z" fill="#33C863"/>
</svg>
