<svg width="20" height="21" viewBox="0 0 20 21" fill="none" xmlns="http://www.w3.org/2000/svg">
<g clip-path="url(#clip0_16_12)">
<path d="M17.795 14.2392C16.68 13.8175 15.9342 12.805 15.85 11.5975C15.7675 10.4208 16.3442 9.37582 17.3925 8.80166L18.2642 8.32416L17.6417 7.54916C16.5958 6.24666 15.0992 5.46832 13.6383 5.46832C12.6258 5.46832 11.9233 5.73332 11.3592 5.94666C10.9608 6.09749 10.6467 6.21582 10.3017 6.21582C9.90833 6.21582 9.52 6.07749 9.07 5.91749C8.48 5.70749 7.81167 5.46916 6.95333 5.46916C5.295 5.46916 3.6225 6.45916 2.58917 8.05082C1.04667 10.425 1.47 14.4958 3.59583 17.7308C4.43833 19.0125 5.61917 20.485 7.29167 20.5C7.3025 20.5 7.31333 20.5 7.32417 20.5C8.69333 20.5 8.99333 19.77 10.3225 19.7617C11.7742 19.83 11.9575 20.5058 13.3133 20.4967C14.9475 20.4817 16.1258 19.0208 17.0625 17.5933C17.6158 16.7542 17.83 16.315 18.2608 15.3617L18.6258 14.5533L17.795 14.2392Z" fill="white"/>
<path d="M12.5833 3.37499C13.125 2.67999 13.5358 1.69916 13.3867 0.696655C12.5017 0.757489 11.4683 1.31999 10.8642 2.05332C10.3158 2.71916 9.86333 3.70582 10.0392 4.66582C11.0042 4.69582 12.0033 4.11916 12.5833 3.37499Z" fill="white"/>
</g>
<defs>
<clipPath id="clip0_16_12">
<rect width="20" height="20" fill="white" transform="translate(0 0.5)"/>
</clipPath>
</defs>
</svg>
