<svg width="46" height="46" viewBox="0 0 46 46" fill="none" xmlns="http://www.w3.org/2000/svg">
<path d="M41.5078 0H4.49219C2.01122 0 0 2.01122 0 4.49219V41.5078C0 43.9888 2.01122 46 4.49219 46H41.5078C43.9888 46 46 43.9888 46 41.5078V4.49219C46 2.01122 43.9888 0 41.5078 0Z" fill="url(#paint0_linear_10_831)"/>
<path d="M37.8637 5.97974H28.1462C26.9553 5.97974 25.9899 6.94512 25.9899 8.13599V23.9485C25.9899 25.1394 26.9553 26.1047 28.1462 26.1047H37.8637C39.0545 26.1047 40.0199 25.1394 40.0199 23.9485V8.13599C40.0199 6.94512 39.0545 5.97974 37.8637 5.97974Z" fill="white"/>
<path d="M17.8539 5.97974H8.13641C6.94555 5.97974 5.98016 6.94512 5.98016 8.13599V35.4485C5.98016 36.6394 6.94555 37.6047 8.13641 37.6047H17.8539C19.0448 37.6047 20.0102 36.6394 20.0102 35.4485V8.13599C20.0102 6.94512 19.0448 5.97974 17.8539 5.97974Z" fill="white"/>
<defs>
<linearGradient id="paint0_linear_10_831" x1="23" y1="0" x2="23" y2="46" gradientUnits="userSpaceOnUse">
<stop stop-color="#0091E6"/>
<stop offset="1" stop-color="#0079BF"/>
</linearGradient>
</defs>
</svg>
