<svg width="118" height="30" viewBox="0 0 118 30" fill="none" xmlns="http://www.w3.org/2000/svg">
<g clip-path="url(#clip0_10_799)">
<path d="M37.7032 23.5117L39.1752 20.0883C40.7659 21.277 42.8789 21.8952 44.9683 21.8952C46.5115 21.8952 47.485 21.3007 47.485 20.3975C47.4613 17.8775 38.2492 19.8506 38.178 13.5268C38.1542 10.3175 41.0035 7.84503 45.0395 7.84503C47.4375 7.84503 49.8356 8.43926 51.5449 9.79434L50.1679 13.2891C48.6009 12.2906 46.6542 11.5775 44.8021 11.5775C43.5438 11.5775 42.7129 12.1717 42.7129 12.9326C42.7367 15.405 52.0199 14.05 52.1149 20.0883C52.1149 23.3691 49.337 25.6752 45.3483 25.6752C42.4278 25.6752 39.7449 24.9857 37.7032 23.5117ZM94.1865 18.852L98.2464 21.1106C96.727 23.8445 93.8304 25.6752 90.4826 25.6752C85.5679 25.6752 81.5792 21.6813 81.5792 16.7601C81.5792 11.839 85.5679 7.84503 90.4826 7.84503C93.8067 7.84503 96.727 9.69926 98.2464 12.4096L94.1865 14.668C93.4504 13.3842 92.0733 12.5047 90.4826 12.5047C88.1321 12.5047 86.2328 14.4065 86.2328 16.7601C86.2328 19.1137 88.1321 21.0155 90.4826 21.0155C92.0733 21.0155 93.4504 20.1358 94.1863 18.852H94.1865ZM54.1566 0.451416H59.2375V25.3422H54.1566V0.451416ZM100.241 0.451416H105.322V15.072L111.067 8.20157H117.288L110.189 16.4746L117.858 25.3422H111.352L105.322 17.8775V25.3422H100.241V0.451416ZM74.3378 18.8998V14.6917C73.6017 13.4555 72.0822 12.5047 70.3729 12.5047C68.0221 12.5047 66.123 14.4065 66.123 16.7601C66.123 19.1137 68.0221 21.0155 70.3729 21.0155C72.0822 21.0155 73.6017 20.112 74.3378 18.8996V18.8998ZM74.3378 8.2018H79.4188V25.3186H74.3378V23.298C73.5068 24.7006 71.4411 25.6754 69.2807 25.6754C64.8169 25.6754 61.3032 21.6815 61.3032 16.7366C61.3032 11.7916 64.8169 7.84526 69.2807 7.84526C71.4411 7.84526 73.5068 8.82003 74.3378 10.2226V8.20134V8.2018Z" fill="white"/>
<path d="M6.2926 18.876C6.2926 20.6114 4.89181 22.0143 3.15845 22.0143C2.74677 22.0147 2.33905 21.9338 1.95864 21.7762C1.57822 21.6186 1.23257 21.3875 0.941479 21.096C0.650387 20.8045 0.419565 20.4584 0.262224 20.0774C0.104883 19.6965 0.0241134 19.2883 0.0245378 18.876C0.0245378 17.1407 1.42533 15.738 3.15845 15.738H6.2926V18.876ZM7.85955 18.876C7.85955 17.1407 9.26034 15.738 10.9935 15.738C12.7266 15.738 14.1276 17.1407 14.1276 18.876V26.7213C14.1276 28.4567 12.7268 29.8595 10.9935 29.8595C10.5818 29.8599 10.1741 29.7789 9.79372 29.6214C9.41333 29.4638 9.06771 29.2326 8.77664 28.9411C8.48558 28.6496 8.25478 28.3035 8.09745 27.9226C7.94012 27.5417 7.85936 27.1335 7.85978 26.7213V18.876H7.85955Z" fill="#E01E5A"/>
<path d="M10.9927 6.27623C10.581 6.27659 10.1733 6.19567 9.79292 6.03808C9.41253 5.88049 9.06691 5.64934 8.77585 5.35785C8.48478 5.06636 8.25398 4.72025 8.09665 4.33934C7.93932 3.95844 7.85856 3.5502 7.85899 3.138C7.85876 1.40262 9.25954 0 10.9927 0C12.7258 0 14.1268 1.40262 14.1268 3.138V6.27623H10.9927ZM10.9927 7.869C12.7258 7.869 14.1268 9.27161 14.1268 11.007C14.1268 12.7424 12.726 14.1452 10.9927 14.1452H3.13392C2.72223 14.1456 2.31452 14.0647 1.9341 13.9071C1.55368 13.7496 1.20804 13.5184 0.916943 13.2269C0.625851 12.9354 0.395028 12.5893 0.237688 12.2084C0.0803469 11.8275 -0.000422783 11.4192 1.6642e-06 11.007C1.6642e-06 9.27161 1.40079 7.86923 3.13392 7.86923H10.9929L10.9927 7.869Z" fill="#36C5F0"/>
<path d="M23.5527 11.007C23.5527 9.27161 24.9535 7.869 26.6866 7.869C28.4197 7.869 29.8208 9.27161 29.8208 11.007C29.8208 12.7424 28.42 14.1452 26.6866 14.1452H23.5527V11.007ZM21.9855 11.007C21.9855 12.7424 20.585 14.1452 18.8516 14.1452C18.4399 14.1456 18.0322 14.0647 17.6518 13.9071C17.2714 13.7496 16.9257 13.5184 16.6346 13.2269C16.3435 12.9354 16.1127 12.5893 15.9554 12.2084C15.798 11.8275 15.7173 11.4192 15.7177 11.007V3.138C15.7177 1.40262 17.1185 0 18.8516 0C20.5847 0 21.9857 1.40262 21.9857 3.138V11.0072L21.9855 11.007Z" fill="#2EB67D"/>
<path d="M18.8516 23.5833C20.5847 23.5833 21.9857 24.9859 21.9857 26.7213C21.9857 28.4566 20.585 29.8595 18.8516 29.8595C18.4399 29.8599 18.0322 29.779 17.6518 29.6214C17.2714 29.4638 16.9257 29.2327 16.6346 28.9412C16.3435 28.6497 16.1127 28.3036 15.9554 27.9227C15.798 27.5417 15.7173 27.1335 15.7177 26.7213V23.5833H18.8516ZM18.8516 22.014C18.4399 22.0144 18.0322 21.9335 17.6518 21.776C17.2714 21.6184 16.9258 21.3873 16.6347 21.0958C16.3436 20.8043 16.1128 20.4583 15.9554 20.0774C15.7981 19.6965 15.7173 19.2882 15.7177 18.876C15.7177 17.1407 17.1185 15.738 18.8516 15.738H26.7106C28.4437 15.738 29.8445 17.1407 29.8445 18.876C29.8445 20.6114 28.4437 22.0143 26.7103 22.0143H18.8516V22.014Z" fill="#ECB22E"/>
</g>
<defs>
<clipPath id="clip0_10_799">
<rect width="118" height="30" fill="white"/>
</clipPath>
</defs>
</svg>
