<svg width="46" height="46" viewBox="0 0 46 46" fill="none" xmlns="http://www.w3.org/2000/svg">
<path d="M43.962 0H21.8693C21.8693 2.64501 22.92 5.18168 24.7903 7.05199C26.6606 8.92229 29.1973 9.97302 31.8423 9.97302H35.912V13.9024C35.9156 19.4054 40.3756 23.8656 45.8786 23.8691V1.91655C45.8786 0.858367 45.0207 0 43.962 0Z" fill="#2684FF"/>
<path d="M33.0304 11.0083H10.9379C10.9413 16.5112 15.4013 20.9714 20.9044 20.975H24.9742V24.917C24.9812 30.4199 29.4442 34.8771 34.9472 34.8771V12.9252C34.9472 11.8667 34.089 11.0085 33.0304 11.0085V11.0083Z" fill="url(#paint0_linear_10_807)"/>
<path d="M22.0928 22.0095H0C0 27.5175 4.46523 31.9825 9.97302 31.9825H14.0555V35.9118C14.0591 41.4097 18.5114 45.8679 24.0095 45.8783V23.9262C24.0095 22.8677 23.1513 22.0095 22.0928 22.0095Z" fill="url(#paint1_linear_10_807)"/>
<defs>
<linearGradient id="paint0_linear_10_807" x1="34.4744" y1="11.0467" x2="25.1336" y2="20.7934" gradientUnits="userSpaceOnUse">
<stop offset="0.18" stop-color="#0052CC"/>
<stop offset="1" stop-color="#2684FF"/>
</linearGradient>
<linearGradient id="paint1_linear_10_807" x1="24.1691" y1="22.1181" x2="13.3642" y2="32.7488" gradientUnits="userSpaceOnUse">
<stop offset="0.18" stop-color="#0052CC"/>
<stop offset="1" stop-color="#2684FF"/>
</linearGradient>
</defs>
</svg>
