<svg width="110" height="25" viewBox="0 0 110 25" fill="none" xmlns="http://www.w3.org/2000/svg">
<path d="M17.2336 0.0610352H20.7405V3.73497H17.2336V0.0610352Z" fill="white"/>
<path d="M78.6319 0.0610352H82.1388V3.73497H78.6319V0.0610352Z" fill="white"/>
<path d="M9.48287 5.05322C7.27256 5.05322 5.99424 6.03955 5.37764 6.72096C5.30438 6.13378 4.91487 5.37203 3.39528 5.37203H0.0952759V8.8075H1.44772C1.67653 8.8075 1.75022 8.88015 1.75022 9.10728V24.7936H5.68401V18.9062C5.68401 18.7472 5.68078 18.5987 5.6767 18.4658C6.29115 19.0272 7.46463 19.7998 9.29768 19.7998C13.1425 19.7998 15.8306 16.7686 15.8306 12.4272C15.8306 8.0169 13.2783 5.05322 9.48287 5.05322ZM8.68365 16.3921C6.56594 16.3921 5.60387 14.3754 5.60387 12.5071C5.60387 9.56412 7.22207 8.51519 8.73629 8.51519C10.5932 8.51519 11.8421 10.1075 11.8421 12.4795C11.8421 15.1844 10.2544 16.3921 8.68387 16.3921" fill="white"/>
<path d="M21.0091 15.7732V7.46145C21.0091 6.05611 20.328 5.37256 18.9335 5.37256H15.4188V8.80803H16.7728C17.0007 8.80803 17.074 8.88068 17.074 9.1076V17.3918C17.074 18.817 17.734 19.4803 19.1461 19.4803H22.6653V16.0751H21.3109C21.0931 16.0751 21.0091 15.9888 21.0091 15.7734" fill="white"/>
<path d="M31.2842 5.05322C29.0732 5.05322 27.7966 6.03955 27.1772 6.72096C27.1042 6.13378 26.7166 5.37203 25.1972 5.37203H21.8951V8.8075H23.249C23.477 8.8075 23.5509 8.88015 23.5509 9.10728V24.7936H27.4864V18.9062C27.4864 18.7472 27.4821 18.5987 27.4772 18.4658C28.089 19.0272 29.2664 19.7998 31.0988 19.7998C34.944 19.7998 37.6309 16.7686 37.6309 12.4272C37.6309 8.0169 35.08 5.05322 31.2844 5.05322H31.2842ZM30.4817 16.3921C28.3698 16.3921 27.4043 14.3754 27.4043 12.5071C27.4043 9.56412 29.0221 8.51519 30.5376 8.51519C32.3943 8.51519 33.6427 10.1075 33.6427 12.4795C33.6427 15.1844 32.057 16.3921 30.4817 16.3921Z" fill="white"/>
<path d="M44.8818 5.05319C40.6442 5.05319 37.6811 8.08588 37.6811 12.4271C37.6811 16.6981 40.8784 19.7998 45.284 19.7998C48.7498 19.7998 50.8673 17.7594 50.9567 17.6731L51.1148 17.5179L49.4019 14.6895L49.1471 14.9293C49.1308 14.9414 47.5759 16.3667 45.5222 16.3667C43.551 16.3667 42.1082 15.1701 41.7681 13.2929H51.0953L51.1176 13.0365C51.1236 13.0015 51.2016 12.169 51.2016 11.7622C51.2016 7.74977 48.6618 5.05298 44.8818 5.05298V5.05319ZM41.9142 10.3906C42.341 9.00618 43.408 8.22178 44.8818 8.22178C46.0656 8.22178 46.9782 9.11751 47.1383 10.3906H41.9142Z" fill="white"/>
<path d="M65.5077 15.7728V2.1495C65.5077 0.745223 64.8175 0.0610352 63.4049 0.0610352H59.8892V3.49629H61.2427C61.4704 3.49629 61.5456 3.56958 61.5456 3.79693V6.25954C60.9651 5.73817 59.8311 5.05313 57.8795 5.05313C54.0624 5.05313 51.3987 8.08603 51.3987 12.4271C51.3987 16.8375 53.9511 19.7999 57.7467 19.7999C59.9173 19.7999 61.1677 18.7978 61.7787 18.1001C61.8582 18.7091 62.2546 19.4798 63.7267 19.4798H67.1345V16.0749H65.8092C65.5911 16.0749 65.5077 15.9882 65.5077 15.7728ZM58.4931 16.3924C56.6225 16.3924 55.4122 14.8354 55.4122 12.4273C55.4122 10.0865 56.6714 8.51531 58.5468 8.51531C60.6727 8.51531 61.6255 10.4651 61.6255 12.4016C61.6255 15.3452 60.006 16.3922 58.4931 16.3922" fill="white"/>
<path d="M75.9077 5.18579C74.2706 5.18579 72.7632 6.12575 71.8699 7.62297V7.30053C71.8699 6.02212 71.1601 5.37233 69.7677 5.37233H66.386V8.80801H67.7385C67.9662 8.80801 68.0416 8.88024 68.0416 9.1078V19.4807H71.9746V13.8343C71.9746 13.0907 72.0699 12.3747 72.256 11.7134C72.8477 9.76613 74.4214 9.07297 75.6939 9.07297C76.1451 9.07297 76.4738 9.12062 76.4788 9.12212L76.8075 9.17126V5.28259L76.5681 5.2422C76.5561 5.24006 76.2231 5.18579 75.9077 5.18579Z" fill="white"/>
<path d="M82.406 15.7732V7.46145C82.406 6.05611 81.7288 5.37256 80.3332 5.37256H77.1533V8.80803H78.1697C78.3992 8.80803 78.472 8.88068 78.472 9.1076V17.3918C78.472 18.817 79.1322 19.4803 80.547 19.4803H84.0629V16.0751H82.7085C82.4905 16.0751 82.406 15.9888 82.406 15.7734" fill="white"/>
<path d="M97.1864 8.808V5.37253H95.0873C93.8617 5.37253 93.2038 5.79518 92.8154 6.83407L90.2512 13.9569C90.1594 14.2351 90.0784 14.5168 90.0084 14.8012C89.9337 14.5157 89.8456 14.2161 89.7483 13.9516L87.1841 6.8315C86.7905 5.78193 86.1554 5.37231 84.9123 5.37231H82.6814V8.808H83.2604C83.5672 8.808 83.6658 8.91142 83.7391 9.10244L87.7081 19.4802H92.1309L96.1005 9.10244C96.1732 8.91142 96.2746 8.808 96.5822 8.808H97.1864Z" fill="white"/>
<path d="M109.827 13.0367C109.831 13.0015 109.91 12.1688 109.91 11.7622C109.91 7.74977 107.37 5.05298 103.589 5.05298C99.3509 5.05298 96.39 8.08588 96.39 12.4269C96.39 16.6983 99.5836 19.7998 103.99 19.7998C107.457 19.7998 109.576 17.7594 109.664 17.6731L109.824 17.5179L108.114 14.6895L107.854 14.9293C107.84 14.9414 106.277 16.3667 104.231 16.3667C102.259 16.3667 100.815 15.1701 100.474 13.2929H109.804L109.827 13.0365V13.0367ZM100.621 10.3908C101.052 9.00618 102.115 8.22157 103.589 8.22157C104.776 8.22157 105.685 9.11751 105.846 10.3908H100.622H100.621Z" fill="white"/>
<path d="M75.9077 5.18579C74.6363 5.18579 73.452 5.7578 72.5632 6.70972C73.3141 6.7031 74.0697 6.6969 74.8253 6.6969C75.4892 6.6969 76.1475 6.7031 76.8077 6.70694V5.28259L76.5681 5.2422C76.5561 5.24006 76.2231 5.18579 75.9077 5.18579Z" fill="white"/>
<path d="M92.8157 6.8341L92.6539 7.28688C94.175 7.39094 95.6839 7.50568 97.1867 7.6341V5.37256H95.0881C93.8622 5.37256 93.2039 5.79521 92.8157 6.8341Z" fill="white"/>
<path d="M9.48287 5.05322C7.27256 5.05322 5.99381 6.03955 5.37764 6.72074C5.30395 6.13378 4.91487 5.37203 3.39528 5.37203H0.0952759V8.8075H1.44772C1.67653 8.8075 1.75022 8.88015 1.75022 9.10707V17.8485C3.58856 17.2135 5.438 16.6107 7.2977 16.0404C6.14184 15.3825 5.60387 13.9041 5.60387 12.5066C5.60387 9.56433 7.22207 8.51519 8.73629 8.51519C10.5932 8.51519 11.8421 10.1075 11.8421 12.4795C11.8421 13.4757 11.6247 14.2658 11.2736 14.8697C12.7592 14.4509 14.2499 14.0504 15.7454 13.6682C15.7943 13.2675 15.8306 12.8549 15.8306 12.4272C15.8306 8.0169 13.2783 5.05322 9.48287 5.05322Z" fill="white"/>
<path d="M18.9335 5.37256H15.4188V8.80803H16.7728C17.0005 8.80803 17.0736 8.88068 17.0736 9.10782V13.3392C18.3821 13.0147 19.694 12.7037 21.0091 12.4061V7.46145C21.0091 6.05653 20.328 5.37256 18.9335 5.37256Z" fill="white"/>
<path d="M17.2336 0.0610352H20.7405V3.73497H17.2336V0.0610352Z" fill="white"/>
<path d="M31.2846 5.05319C29.0734 5.05319 27.7971 6.03952 27.1777 6.72071C27.104 6.13375 26.717 5.372 25.1972 5.372H21.8955V8.80747H23.249C23.477 8.80747 23.5513 8.88012 23.5513 9.10704V11.8474C24.8938 11.5644 26.2388 11.2931 27.5861 11.0333C28.0368 9.21751 29.3141 8.51516 30.5376 8.51516C31.6451 8.51516 32.5277 9.08952 33.0659 10.0493C34.4237 9.82435 35.7901 9.60747 37.1687 9.40212C36.2729 6.71601 34.127 5.05298 31.2846 5.05298" fill="white"/>
<path d="M44.882 5.05319C41.7859 5.05319 39.3773 6.67435 38.3013 9.23973C39.9732 9.0002 41.6626 8.77648 43.3667 8.56879C43.8026 8.34294 44.3101 8.222 44.882 8.222C45.0988 8.222 45.3001 8.26217 45.4952 8.31772C47.0412 8.14379 48.6014 7.98353 50.1738 7.83674C49.0929 6.09187 47.2266 5.05298 44.882 5.05298" fill="white"/>
<path d="M63.4046 0.0610352H59.8889V3.49629H61.2424C61.4697 3.49629 61.5454 3.56958 61.5454 3.79693V6.25954C60.9649 5.73817 59.8309 5.05313 57.8793 5.05313C55.7429 5.05313 53.9685 6.00334 52.8193 7.60334C57.0419 7.25141 61.2726 7.00212 65.5075 6.85569V2.1495C65.5075 0.745223 64.8172 0.0610352 63.4046 0.0610352Z" fill="white"/>
<path d="M69.7681 5.37256H66.3858V6.83175C68.1804 6.77491 69.9831 6.73431 71.8014 6.7138C71.6022 5.82683 70.925 5.37256 69.7681 5.37256Z" fill="white"/>
<path d="M78.6319 0.0610352H82.1388V3.73497H78.6319V0.0610352Z" fill="white"/>
<path d="M80.3331 5.37256H77.1534V6.70931C78.8902 6.72491 80.6189 6.75632 82.3383 6.80312C82.1428 5.84756 81.4871 5.37256 80.3331 5.37256Z" fill="white"/>
<path d="M84.9123 5.37256H82.6814V6.81358C84.2085 6.85845 85.7264 6.91401 87.2357 6.98239L87.1841 6.83175C86.7905 5.78217 86.1554 5.37256 84.9123 5.37256Z" fill="white"/>
<path d="M103.589 5.05319C101.172 5.05319 99.1751 6.04144 97.8995 7.69358C99.7468 7.8549 101.583 8.03588 103.398 8.23503C103.678 8.26558 103.953 8.29379 104.228 8.32584C105.98 8.52285 107.713 8.73952 109.431 8.97263C108.531 6.55105 106.404 5.05298 103.589 5.05298" fill="white"/>
</svg>
