<svg width="20" height="16" viewBox="0 0 20 16" fill="none" xmlns="http://www.w3.org/2000/svg">
<g clip-path="url(#clip0_50_290)">
<path d="M9.5022 10C10.8139 10 11.8772 9.10457 11.8772 8C11.8772 6.89543 10.8139 6 9.5022 6C8.19052 6 7.1272 6.89543 7.1272 8C7.1272 9.10457 8.19052 10 9.5022 10Z" fill="#6A7183"/>
<path d="M2.3772 10C3.68887 10 4.7522 9.10457 4.7522 8C4.7522 6.89543 3.68887 6 2.3772 6C1.06552 6 0.00219727 6.89543 0.00219727 8C0.00219727 9.10457 1.06552 10 2.3772 10Z" fill="#6A7183"/>
<path d="M16.6272 10C17.9389 10 19.0022 9.10457 19.0022 8C19.0022 6.89543 17.9389 6 16.6272 6C15.3155 6 14.2522 6.89543 14.2522 8C14.2522 9.10457 15.3155 10 16.6272 10Z" fill="#6A7183"/>
</g>
<defs>
<clipPath id="clip0_50_290">
<rect width="19" height="16" fill="white" transform="translate(0.00219727)"/>
</clipPath>
</defs>
</svg>
