<svg width="16" height="15" viewBox="0 0 16 15" fill="none" xmlns="http://www.w3.org/2000/svg">
<g clip-path="url(#clip0_10_697)">
<path d="M8.21438 9.47535C9.21301 9.47535 10.0226 8.66536 10.0226 7.6662C10.0226 6.66704 9.21301 5.85706 8.21438 5.85706C7.21574 5.85706 6.40619 6.66704 6.40619 7.6662C6.40619 8.66536 7.21574 9.47535 8.21438 9.47535Z" fill="#6A7183"/>
<path d="M2.78976 9.47559C3.78839 9.47559 4.59794 8.66561 4.59794 7.66644C4.59794 6.66728 3.78839 5.8573 2.78976 5.8573C1.79112 5.8573 0.981567 6.66728 0.981567 7.66644C0.981567 8.66561 1.79112 9.47559 2.78976 9.47559Z" fill="#6A7183"/>
<path d="M13.6389 9.47535C14.6375 9.47535 15.4471 8.66536 15.4471 7.6662C15.4471 6.66704 14.6375 5.85706 13.6389 5.85706C12.6402 5.85706 11.8307 6.66704 11.8307 7.6662C11.8307 8.66536 12.6402 9.47535 13.6389 9.47535Z" fill="#6A7183"/>
</g>
<defs>
<clipPath id="clip0_10_697">
<rect width="14.4655" height="14.4732" fill="white" transform="translate(0.981445 0.429565)"/>
</clipPath>
</defs>
</svg>
