<svg width="16" height="17" viewBox="0 0 16 17" fill="none" xmlns="http://www.w3.org/2000/svg">
<path d="M8 10.993C9.10457 10.993 10 10.0976 10 8.99304C10 7.88847 9.10457 6.99304 8 6.99304C6.89543 6.99304 6 7.88847 6 8.99304C6 10.0976 6.89543 10.993 8 10.993Z" fill="#6A7183"/>
<path d="M2 10.993C3.10457 10.993 4 10.0976 4 8.99304C4 7.88847 3.10457 6.99304 2 6.99304C0.89543 6.99304 0 7.88847 0 8.99304C0 10.0976 0.89543 10.993 2 10.993Z" fill="#6A7183"/>
<path d="M14 10.993C15.1046 10.993 16 10.0976 16 8.99304C16 7.88847 15.1046 6.99304 14 6.99304C12.8954 6.99304 12 7.88847 12 8.99304C12 10.0976 12.8954 10.993 14 10.993Z" fill="#6A7183"/>
</svg>
