<svg width="16" height="17" viewBox="0 0 16 17" fill="none" xmlns="http://www.w3.org/2000/svg">
<path d="M8 10.007C9.10457 10.007 10 9.11153 10 8.00696C10 6.90239 9.10457 6.00696 8 6.00696C6.89543 6.00696 6 6.90239 6 8.00696C6 9.11153 6.89543 10.007 8 10.007Z" fill="#6A7183"/>
<path d="M2 10.007C3.10457 10.007 4 9.11153 4 8.00696C4 6.90239 3.10457 6.00696 2 6.00696C0.89543 6.00696 0 6.90239 0 8.00696C0 9.11153 0.89543 10.007 2 10.007Z" fill="#6A7183"/>
<path d="M14 10.007C15.1046 10.007 16 9.11153 16 8.00696C16 6.90239 15.1046 6.00696 14 6.00696C12.8954 6.00696 12 6.90239 12 8.00696C12 9.11153 12.8954 10.007 14 10.007Z" fill="#6A7183"/>
</svg>
