<svg width="16" height="16" viewBox="0 0 16 16" fill="none" xmlns="http://www.w3.org/2000/svg">
<path d="M11.2684 1.29158L3.03271 13.6516L4.53722 14.6551L12.7729 2.29511L11.2684 1.29158Z" fill="#6A7183"/>
<path d="M6.99866 4.35679C6.99866 3.82006 6.83959 3.29539 6.54156 2.84912C6.24353 2.40286 5.81993 2.05503 5.32433 1.84964C4.82872 1.64424 4.28337 1.5905 3.75724 1.69521C3.23111 1.79992 2.74783 2.05838 2.36851 2.4379C1.98919 2.81742 1.73087 3.30096 1.62621 3.82737C1.52156 4.35378 1.57527 4.89941 1.78056 5.39528C1.98584 5.89115 2.33348 6.31497 2.77952 6.61316C3.22555 6.91135 3.74994 7.0705 4.28638 7.0705C5.00572 7.0705 5.6956 6.7846 6.20425 6.27567C6.7129 5.76675 6.99866 5.07651 6.99866 4.35679ZM3.38229 4.35679C3.38229 4.17788 3.43531 4.00299 3.53465 3.85423C3.634 3.70548 3.7752 3.58953 3.9404 3.52107C4.1056 3.4526 4.28738 3.43469 4.46276 3.46959C4.63814 3.5045 4.79923 3.59065 4.92567 3.71716C5.05211 3.84366 5.13822 4.00484 5.1731 4.18031C5.20799 4.35578 5.19008 4.53766 5.12165 4.70295C5.05323 4.86824 4.93735 5.00951 4.78867 5.10891C4.63999 5.20831 4.46519 5.26136 4.28638 5.26136C4.0466 5.26136 3.81664 5.16606 3.64709 4.99642C3.47754 4.82677 3.38229 4.59669 3.38229 4.35679Z" fill="#6A7183"/>
<path d="M11.5192 8.87866C10.9827 8.87866 10.4583 9.03782 10.0123 9.33601C9.56627 9.63419 9.21863 10.058 9.01335 10.5539C8.80806 11.0498 8.75435 11.5954 8.859 12.1218C8.96366 12.6482 9.22198 13.1317 9.60129 13.5113C9.98061 13.8908 10.4639 14.1492 10.99 14.254C11.5162 14.3587 12.0615 14.3049 12.5571 14.0995C13.0527 13.8941 13.4763 13.5463 13.7743 13.1C14.0724 12.6538 14.2314 12.1291 14.2314 11.5924C14.2314 10.8727 13.9457 10.1824 13.437 9.67349C12.9284 9.16457 12.2385 8.87866 11.5192 8.87866ZM11.5192 12.497C11.3404 12.497 11.1656 12.4439 11.0169 12.3445C10.8682 12.2451 10.7523 12.1038 10.6839 11.9385C10.6155 11.7733 10.5976 11.5914 10.6324 11.4159C10.6673 11.2404 10.7534 11.0793 10.8799 10.9528C11.0063 10.8262 11.1674 10.7401 11.3428 10.7052C11.5182 10.6703 11.6999 10.6882 11.8652 10.7567C12.0304 10.8251 12.1716 10.9411 12.2709 11.0898C12.3702 11.2386 12.4233 11.4135 12.4233 11.5924C12.4233 11.8323 12.328 12.0624 12.1585 12.232C11.9889 12.4016 11.7589 12.497 11.5192 12.497Z" fill="#6A7183"/>
</svg>
