<svg width="17" height="16" viewBox="0 0 17 16" fill="none" xmlns="http://www.w3.org/2000/svg">
<path d="M12.2226 0.613517L3.11334 14.2775L4.77744 15.3869L13.8867 1.72292L12.2226 0.613517Z" fill="#6A7183"/>
<path d="M7.5 4C7.5 3.40666 7.32405 2.82664 6.99441 2.33329C6.66477 1.83994 6.19623 1.45542 5.64805 1.22836C5.09987 1.0013 4.49667 0.941888 3.91473 1.05764C3.33279 1.1734 2.79824 1.45912 2.37868 1.87868C1.95912 2.29824 1.6734 2.83279 1.55765 3.41473C1.44189 3.99667 1.5013 4.59987 1.72836 5.14805C1.95543 5.69623 2.33994 6.16476 2.83329 6.49441C3.32664 6.82405 3.90666 7 4.5 7C5.29565 7 6.05871 6.68393 6.62132 6.12132C7.18393 5.55871 7.5 4.79565 7.5 4ZM3.5 4C3.5 3.80222 3.55865 3.60888 3.66853 3.44443C3.77841 3.27998 3.93459 3.15181 4.11732 3.07612C4.30004 3.00043 4.50111 2.98063 4.69509 3.01921C4.88907 3.0578 5.06726 3.15304 5.20711 3.29289C5.34696 3.43275 5.4422 3.61093 5.48079 3.80491C5.51937 3.99889 5.49957 4.19996 5.42388 4.38268C5.34819 4.56541 5.22002 4.72159 5.05557 4.83147C4.89112 4.94135 4.69778 5 4.5 5C4.23478 5 3.98043 4.89464 3.79289 4.70711C3.60536 4.51957 3.5 4.26522 3.5 4Z" fill="#6A7183"/>
<path d="M12.5 9C11.9067 9 11.3266 9.17595 10.8333 9.50559C10.3399 9.83524 9.95543 10.3038 9.72836 10.8519C9.5013 11.4001 9.44189 12.0033 9.55765 12.5853C9.6734 13.1672 9.95912 13.7018 10.3787 14.1213C10.7982 14.5409 11.3328 14.8266 11.9147 14.9424C12.4967 15.0581 13.0999 14.9987 13.6481 14.7716C14.1962 14.5446 14.6648 14.1601 14.9944 13.6667C15.3241 13.1734 15.5 12.5933 15.5 12C15.5 11.2044 15.1839 10.4413 14.6213 9.87868C14.0587 9.31607 13.2957 9 12.5 9ZM12.5 13C12.3022 13 12.1089 12.9414 11.9444 12.8315C11.78 12.7216 11.6518 12.5654 11.5761 12.3827C11.5004 12.2 11.4806 11.9989 11.5192 11.8049C11.5578 11.6109 11.653 11.4327 11.7929 11.2929C11.9327 11.153 12.1109 11.0578 12.3049 11.0192C12.4989 10.9806 12.7 11.0004 12.8827 11.0761C13.0654 11.1518 13.2216 11.28 13.3315 11.4444C13.4414 11.6089 13.5 11.8022 13.5 12C13.5 12.2652 13.3946 12.5196 13.2071 12.7071C13.0196 12.8946 12.7652 13 12.5 13Z" fill="#6A7183"/>
</svg>
