<svg width="1615" height="372" viewBox="0 0 1615 372" fill="none" xmlns="http://www.w3.org/2000/svg">
<path d="M322.86 312.331C142.354 312.331 76.7892 156.917 1.51099 156.917V371.42H1613.11V86.4958C1607.29 80.6678 1584.78 78.1316 1574.26 77.592C1419.66 77.592 1477.13 314.759 1296.62 314.759C1116.11 314.759 1188.96 156.917 1014.93 156.917C819.049 156.917 878.138 2.31372 736.486 2.31372C594.833 2.31372 556.789 312.331 322.86 312.331Z" fill="url(#paint0_linear_50_772)"/>
<path d="M1.51099 156.917C76.7892 156.917 142.354 312.331 322.86 312.331C556.789 312.331 594.833 2.31372 736.486 2.31372C878.138 2.31372 819.049 156.917 1014.93 156.917C1188.96 156.917 1116.11 314.759 1296.62 314.759C1477.13 314.759 1419.66 77.592 1574.26 77.592C1584.78 78.1316 1607.29 80.6678 1613.11 86.4958" stroke="#33C863" stroke-width="3" stroke-linecap="round"/>
<defs>
<linearGradient id="paint0_linear_50_772" x1="807.312" y1="2.31372" x2="807.312" y2="371.42" gradientUnits="userSpaceOnUse">
<stop stop-color="#26323F"/>
<stop offset="1" stop-color="#26323F" stop-opacity="0"/>
</linearGradient>
</defs>
</svg>
