<svg width="46" height="46" viewBox="0 0 46 46" fill="none" xmlns="http://www.w3.org/2000/svg">
<path d="M24.2497 43.0349C16.5198 43.0349 9.73094 40.0564 4.61535 34.4195C4.35271 34.131 4.17445 33.7758 4.10008 33.3928C4.02572 33.0098 4.0581 32.6137 4.19369 32.2479C5.53727 28.6273 9.16552 20.2093 13.8173 20.1825H13.8422C16.1786 20.1825 17.9247 22.0321 19.3315 23.5194C19.7532 23.9641 20.3953 24.6445 20.8304 24.978C21.9152 23.9066 24.0465 20.3473 25.7025 16.7785C25.9471 16.2767 26.3788 15.8908 26.9048 15.7039C27.4308 15.517 28.0092 15.544 28.5156 15.7789C29.0219 16.0139 29.4159 16.4382 29.6128 16.9606C29.8097 17.483 29.7937 18.0617 29.5684 18.5725C24.5449 29.4016 21.8654 29.4016 20.9856 29.4016C19.0268 29.4016 17.6084 27.899 16.2342 26.4461C15.6209 25.7964 14.3405 24.4432 13.8422 24.4432C12.7554 24.6253 10.3749 28.3781 8.67294 32.5009C12.8762 36.6639 18.1087 38.7722 24.2497 38.7722C32.6734 38.7722 38.9754 36.4799 41.6914 32.4568C40.7522 21.7522 34.8584 7.22772 24.2497 7.22772C15.2682 7.22772 8.50235 13.4837 4.14002 25.8194C3.93881 26.3346 3.54519 26.7514 3.04232 26.9818C2.53945 27.2121 1.96673 27.238 1.44516 27.0538C0.923596 26.8697 0.494044 26.49 0.247267 25.995C0.00048912 25.5 -0.0441836 24.9284 0.122687 24.4011C5.15202 10.1736 13.2691 2.96313 24.2497 2.96313C38.5902 2.96313 45.1988 21.2884 45.9943 32.8401C46.0233 33.2619 45.9266 33.6828 45.7163 34.0496C42.3813 39.8436 34.7569 43.033 24.2497 43.033V43.0349Z" fill="white"/>
</svg>
