<svg width="32" height="24" viewBox="0 0 32 24" fill="none" xmlns="http://www.w3.org/2000/svg">
<path d="M10.6666 15C12.8758 15 14.6666 13.6569 14.6666 12C14.6666 10.3431 12.8758 9 10.6666 9C8.45749 9 6.66663 10.3431 6.66663 12C6.66663 13.6569 8.45749 15 10.6666 15Z" stroke="white" stroke-width="2" stroke-miterlimit="10" stroke-linecap="round" stroke-linejoin="round"/>
<path d="M10.6666 5H21.3333C23.8087 5 26.1826 5.7375 27.933 7.05025C29.6833 8.36301 30.6666 10.1435 30.6666 12C30.6666 13.8565 29.6833 15.637 27.933 16.9497C26.1826 18.2625 23.8087 19 21.3333 19H10.6666C8.19129 19 5.81732 18.2625 4.06698 16.9497C2.31664 15.637 1.33331 13.8565 1.33331 12V12C1.33331 10.1435 2.31664 8.36301 4.06698 7.05025C5.81732 5.7375 8.19129 5 10.6666 5V5Z" stroke="white" stroke-width="2" stroke-miterlimit="10" stroke-linecap="round" stroke-linejoin="round"/>
</svg>
