<svg width="66" height="43" viewBox="0 0 66 43" fill="none" xmlns="http://www.w3.org/2000/svg">
<path d="M32.9796 0.238281C26.6088 0.238281 20.381 1.48583 15.0838 3.82318C9.78668 6.16052 5.65805 9.48268 3.22004 13.3695C0.782023 17.2564 0.144128 21.5334 1.38702 25.6597C2.6299 29.7859 5.69775 33.5762 10.2026 36.551C14.7075 39.5259 20.447 41.5518 26.6954 42.3726C32.9439 43.1934 39.4205 42.7721 45.3064 41.1621C51.1923 39.5521 56.223 36.8257 59.7625 33.3276C63.3019 29.8295 65.1911 25.7169 65.1911 21.5098C65.1663 15.8733 61.7646 10.4723 55.7292 6.48665C49.6937 2.50101 41.515 0.25465 32.9796 0.238281V0.238281ZM27.611 31.1068L13.0782 21.5098L16.8738 19.0033L27.611 26.0938L49.0853 11.9128L52.8809 14.4193L27.611 31.1068Z" fill="#49D078"/>
</svg>
