<svg width="32" height="12" viewBox="0 0 32 12" fill="none" xmlns="http://www.w3.org/2000/svg">
<g clip-path="url(#clip0_50_281)">
<path d="M25.1922 8.475C26.9396 7.575 27.9103 6.525 27.9103 5.325C27.9103 2.4 21.8917 0 14.3198 0C6.74797 0 0.535156 2.4 0.535156 5.325C0.535156 8.25 6.74797 10.65 14.3198 10.65C17.4262 10.65 20.3385 10.275 22.4741 9.6L28.2987 11.85C28.687 12 29.2694 12.075 29.6577 12.075C30.046 12.075 30.6285 12 31.0168 11.85C31.7934 11.55 31.7934 11.1 31.0168 10.8L25.1922 8.475ZM14.3198 9.075C8.88362 9.075 4.41816 7.425 4.41816 5.325C4.41816 3.225 8.88362 1.5 14.3198 1.5C19.756 1.5 24.2215 3.225 24.2215 5.325C24.2215 7.425 19.756 9.075 14.3198 9.075Z" fill="#6A7183"/>
</g>
<defs>
<clipPath id="clip0_50_281">
<rect width="31.064" height="12" fill="white" transform="translate(0.535156)"/>
</clipPath>
</defs>
</svg>
